<svg width="24" height="25" viewBox="0 0 24 25" fill="none" xmlns="http://www.w3.org/2000/svg">
<g clip-path="url(#clip0_192_2496)">
<path d="M12.6496 24.4222C25.704 23.673 28.1309 5.28809 15.7441 1.15963C12.3166 0.0125001 8.38651 0.534266 5.38787 2.55706H5.38871C3.99898 3.48107 2.81839 4.68614 1.92308 6.09453C1.02777 7.50291 0.437633 9.08334 0.19074 10.7338L0.18999 10.7333C-0.984838 18.101 5.19722 24.9094 12.6496 24.4222ZM22.3113 16.8554C21.8852 17.8643 21.3124 18.8048 20.6116 19.6464C20.5621 19.3514 20.6986 19.0098 20.4953 18.7345C20.2746 18.3042 20.0701 17.8653 19.8402 17.4401C19.7547 17.282 19.7783 17.1912 19.9043 17.0773C21.2539 15.8931 20.0507 16.5228 20.1833 14.8302C20.1881 14.7845 20.179 14.7384 20.1573 14.6979C20.1356 14.6573 20.1022 14.6242 20.0614 14.6029C19.4217 14.1944 18.5865 14.0541 17.9254 14.5081C17.1014 14.8975 15.9261 14.5996 15.6596 13.6539C15.4238 13.0252 15.4528 12.3904 15.4466 11.7484C15.4846 11.4022 15.9595 11.3441 15.8825 10.9439C15.9008 10.4358 15.7352 9.89938 16.2157 9.56773C16.2525 9.53524 16.2964 9.51177 16.3439 9.4992C16.3913 9.48663 16.4411 9.4853 16.4891 9.49531C16.9282 9.54841 17.3719 9.44494 17.7422 9.20309C18.1349 8.95414 18.6197 9.1153 19.0547 9.05863C19.262 9.04386 19.4156 9.10475 19.5433 9.26614C19.7942 9.58302 20.1868 9.67606 20.5166 9.86853C20.6276 9.93327 20.6872 9.85166 20.7392 9.78453C21.0163 9.42706 21.4409 9.30697 21.8132 9.10142C22.016 8.98522 22.4226 9.42884 22.7687 9.44459C23.4585 11.8589 23.2984 14.5466 22.3113 16.8554ZM22.1492 7.78137C21.7358 7.83575 22.0138 7.44308 21.8005 7.23763C21.5863 7.04646 21.3825 6.84388 21.1901 6.63078C21.0905 6.52437 21.026 6.50727 20.9108 6.62094C20.6015 6.92703 20.6189 6.89455 20.9796 7.26031C21.4008 7.72334 21.7183 7.71561 20.9562 8.03736C20.7827 8.11545 20.619 8.29339 20.4297 8.03628C20.3151 7.8807 20.1592 7.77617 20.1777 7.5365C20.2061 7.16694 19.9242 6.899 19.7937 6.57992C19.7548 6.48472 19.6859 6.5518 19.6492 6.59867C19.3748 6.95155 18.9601 7.08795 18.5846 7.28399C17.9359 7.85117 18.084 7.78939 17.2231 7.76473C17.1435 7.76816 17.12 7.67206 17.0854 7.61591C16.652 6.90631 16.736 6.73334 17.1851 6.06345C17.3503 5.96436 18.0801 6.07873 18.2181 6.22283C18.2801 6.28752 18.331 6.36289 18.4205 6.47567C18.4892 6.20098 18.4544 5.99052 18.4615 5.78319C18.5779 4.93245 19.2927 5.31584 19.8002 5.13106C20.0401 4.94773 20.1385 4.85647 20.0876 4.76652C20.936 5.65123 21.6325 6.66986 22.1492 7.78137ZM20.0182 4.69531C19.6718 4.4698 18.9023 4.23205 18.8819 3.6748C19.2836 3.98846 19.6633 4.32944 20.0182 4.69531ZM4.08793 4.5875C4.73361 3.94088 5.45603 3.37573 6.23907 2.90469C6.50536 3.04063 6.69535 3.54073 7.02938 3.36303C7.38563 3.17609 7.76532 3.02783 8.02107 2.69356C8.16596 2.51755 8.41951 2.65227 8.60874 2.59888C9.35274 2.49814 9.55388 3.34527 9.83218 3.84922C9.80762 3.86989 9.79468 3.88972 9.78399 3.8885C9.13843 3.81566 8.54649 4.02294 7.96144 4.24822C7.76926 4.32223 7.62113 4.32852 7.5009 4.14345C7.3523 3.91461 7.16138 3.908 6.92433 4.00672C6.70477 4.16192 5.91591 4.18873 5.97043 4.50022C6.02396 4.79286 5.79291 5.29166 6.31819 5.19195C6.56433 5.10631 6.77593 5.83367 6.92635 5.4155C7.24913 4.10769 8.60991 5.24895 9.65916 4.41331C10.0452 4.18428 10.3627 4.93869 10.5127 5.20442C10.6267 5.45375 10.7091 5.74728 11.1099 5.66033C10.8586 5.91177 10.6055 6.16152 10.357 6.41567C10.2849 6.48941 10.2194 6.46578 10.1384 6.43766C9.82594 6.32919 9.50921 6.23277 9.19782 6.12125C9.04927 6.06805 8.97802 6.06284 8.9814 6.26188C9.23565 7.63063 8.06963 6.31053 7.25986 7.337C6.24943 8.3525 7.0314 9.20469 5.64268 10.2723C5.55966 10.3485 5.49071 10.3577 5.40863 10.2974C4.80535 9.86914 3.44991 9.63645 2.99926 10.3365C2.99279 10.3576 2.99121 10.3799 2.99464 10.4016C2.99807 10.4234 3.00641 10.4442 3.01904 10.4622C3.2604 10.8491 3.27933 11.5 3.73758 10.851C3.87399 10.7348 4.03421 10.7739 4.1739 10.7971C4.32085 10.8215 4.24787 10.9772 4.24421 11.0677C4.26497 11.4286 4.78416 11.4929 4.68202 11.8993C4.62376 12.1932 4.99402 12.0307 5.15672 12.08C5.41974 12.118 5.61929 12.03 5.7879 11.8246C5.91577 11.6688 6.64979 11.563 6.81882 11.6632C6.95283 11.7982 7.00913 12.0092 7.10527 12.1741C7.26507 12.4948 7.27196 12.5012 7.50718 12.2478C8.04765 11.8235 8.80735 12.1592 9.32161 12.4538C9.72563 12.6801 9.59218 13.4881 10.194 13.372C10.3096 13.3447 10.3721 13.4432 10.4355 13.5146C10.8727 14.0494 11.5785 13.9854 11.8371 14.7187C12.0037 15.0246 11.9858 15.2927 11.8443 15.5953C11.7437 16.1637 11.4642 16.5825 10.874 16.7417C10.406 16.9098 11.1955 17.6734 10.1243 17.9779C9.84957 18.0377 9.81399 18.2481 9.84957 18.4949C9.96319 19.1304 9.80888 19.61 9.10988 19.7775C8.90316 19.8458 8.94001 20.1207 8.8419 20.2773C8.35965 21.1562 8.79802 21.7974 9.41218 22.4129C8.87311 22.4448 8.28891 22.4996 8.10258 21.9193C7.8698 21.2432 7.65915 20.5612 7.31396 19.9292C7.19804 19.7169 7.27266 19.4703 7.26966 19.2401C7.18552 18.2983 6.22374 17.5933 6.4044 16.5897C6.47443 16.0871 5.75752 16.8049 5.01526 15.8901C4.76785 15.5967 4.19218 14.8873 4.2916 14.5197C4.4948 14.0132 4.51622 13.4022 4.98535 13.0506C5.18518 12.8952 5.20336 12.4108 4.83066 12.5048C3.87329 12.665 4.07785 11.9456 3.51713 12.0822C3.13744 12.1226 2.86337 11.9981 2.56829 11.7325C1.68301 10.9183 1.42922 11.5215 0.92199 10.9179C1.26239 8.5201 2.37362 6.29816 4.08793 4.5875Z" fill="white"/>
</g>
<defs>
<clipPath id="clip0_192_2496">
<rect width="24" height="24" fill="white" transform="translate(0 0.5)"/>
</clipPath>
</defs>
</svg>
