<svg width="200" height="64" viewBox="0 0 200 64" fill="none" xmlns="http://www.w3.org/2000/svg">
<path fill-rule="evenodd" clip-rule="evenodd" d="M30.8244 17.6527C42.1592 17.6527 51.3514 26.8473 51.3514 38.1859C51.3514 49.5247 42.1592 58.7191 30.8244 58.7191C19.4771 58.7191 10.285 49.5247 10.285 38.1859C10.285 26.8473 19.4771 17.6527 30.8244 17.6527Z" fill="#41B63A"/>
<path fill-rule="evenodd" clip-rule="evenodd" d="M30.8193 17.6527C36.1314 17.6527 40.9786 19.6656 44.6234 22.9886L43.873 23.2863L43.4561 23.727L43.5513 24.2391L44.0515 24.3107L44.3613 25.0609L45.2188 24.7157L45.3616 25.7279H45.0998L44.397 25.6208L43.6107 25.7518L42.8488 26.8237L41.7647 26.9904L41.6099 27.9194L42.0626 28.0264L41.9316 28.622L40.8595 28.4076L39.8709 28.622L39.6564 29.17L39.8354 30.3253L40.4069 30.5991L41.3834 30.5872L42.0387 30.5277L42.241 30.0035L43.2656 28.6695L43.9443 28.8126L44.5996 28.217L44.7306 28.6814L46.3624 29.789L46.1715 30.0512L45.4329 30.0153L45.7069 30.4203L46.1714 30.5156L46.6954 30.2893L46.6835 29.658L46.9219 29.5389L46.731 29.3364L45.6473 28.7291L45.3613 27.9192H46.2665L46.5525 28.205L47.3387 28.8838L47.3625 29.6937L48.1726 30.5513L48.4818 29.372L49.0419 29.0625L49.149 30.0271L49.6968 30.6345H49.9233C50.1495 31.2063 50.3518 31.7898 50.5187 32.3853H49.566L48.5414 31.6231L47.4697 31.7303V32.3853H47.1361L46.7673 32.1233L44.9089 31.647V30.4562L42.5507 30.6349L41.8241 31.028H40.8951L40.4306 30.9804L39.2993 31.6116V32.7907L36.9883 34.4701L37.1792 35.1844H37.6436L37.5247 35.8635L37.1911 35.9824L37.1792 37.757L39.18 40.0437H40.0494L40.0971 39.9009H41.6693L42.122 39.4841H43.0152L43.5036 39.9724L44.8256 40.1032L44.6471 41.866L46.1239 44.4626L45.3495 45.9516L45.3972 46.6423L46.0048 47.2496V48.9289L46.8148 50.0011V51.0728C43.039 55.7296 37.2743 58.7191 30.8191 58.7191C20.183 58.7191 11.4406 50.644 10.3807 40.2822C10.3688 40.1271 10.3569 39.9606 10.345 39.7939C10.2974 39.2576 10.285 38.7218 10.285 38.1858V38.0549V37.8165V37.519L10.2973 37.2211L10.3088 37.0423C10.3211 36.9113 10.3211 36.7805 10.333 36.6614L10.3449 36.5658C10.5235 34.2672 11.0831 32.076 11.9526 30.0512V31.1708L12.8221 31.5874V33.2549L13.6559 34.6722L14.3349 34.7793L14.4301 34.291L13.6201 33.0524L13.4653 31.8495H13.9417L14.1321 33.0881L15.2995 34.7793L15.0016 35.3275L15.7282 36.4468L17.5624 36.9112V36.6133L18.3009 36.7209L18.2292 37.2329L18.8011 37.3399L19.6825 37.5903L20.9446 39.0193L22.5408 39.1383L22.6955 40.4485L21.6 41.2108L21.5524 42.3778L21.3974 43.0926L22.9816 45.0817L23.1006 45.7604C23.1006 45.7604 23.6726 45.9151 23.744 45.9151C23.8153 45.9151 25.0422 46.8441 25.0422 46.8441V50.4295L25.4711 50.5485L25.1732 52.204L25.9117 53.1806L25.7685 54.824L26.7451 56.5154L27.984 57.5994L29.2227 57.6231L29.3537 57.23L28.4366 56.4558L28.4843 56.0745L28.6513 55.5981L28.6869 55.1218L28.0673 55.1099L27.758 54.7168L28.2701 54.2166L28.3415 53.8354L27.758 53.6808L27.7936 53.3234L28.6155 53.2045L29.8658 52.6087L30.2826 51.8348L31.5928 50.1673L31.2953 48.8572L31.6884 48.1661L32.8911 48.2023L33.7011 47.5589L33.9633 45.0337L34.8566 43.8906L35.0231 43.1639L34.2013 42.9022L33.6535 42.009L31.8073 41.9971L30.3544 41.437L30.2826 40.389L29.7943 39.5433L28.4723 39.5196L27.6985 38.3165L27.0194 37.9833L26.9837 38.3521L25.745 38.4239L25.2924 37.7925L24.0061 37.5307L22.9461 38.7691L21.2666 38.4834L21.1477 36.5894L19.9327 36.3871L20.421 35.458L20.2783 34.9341L18.6702 36.0058L17.6699 35.875L17.3006 35.0888L17.5271 34.2788L18.0868 33.2546L19.3613 32.5996H21.8384L21.8265 33.3617L22.7198 33.7667L22.6484 32.4804L23.2918 31.8374L24.5782 30.9919L24.6733 30.3963L25.9597 29.0505L27.3293 28.2882L27.2104 28.1929L28.1393 27.3234L28.4725 27.4069L28.6276 27.5973L28.9845 27.2163L29.0683 27.1687L28.687 27.121L28.294 26.99V26.6088L28.4963 26.442H28.9608L29.1636 26.5256L29.354 26.8946L29.5686 26.859V26.8352L29.64 26.8471L30.283 26.7519L30.3668 26.4421L30.7356 26.5257V26.871L30.3906 27.1092H30.4025L30.45 27.4784L31.6051 27.8358L31.6169 27.8477L31.8791 27.8358L31.9029 27.3235L30.9739 26.9066L30.9264 26.6565L31.6887 26.4065L31.7245 25.6681L30.9264 25.1798L30.8669 23.941L29.7709 24.4887H29.3778L29.4734 23.5479L27.9843 23.1906L27.3651 23.6551V25.0843L26.2573 25.4298L25.8046 26.3587L25.3283 26.442V25.251L24.2803 25.1081L23.7564 24.7628L23.5536 24.0005L25.4239 22.9047L26.3291 22.6189L26.4242 23.2383L26.9364 23.2145L26.972 22.9047L27.508 22.8214L27.5198 22.7143L27.2818 22.6189L27.2343 22.2974L27.8892 22.2496L28.2823 21.833L28.3061 21.809H28.318L28.4369 21.6781L29.8067 21.5113L30.4143 22.0234L28.8182 22.8691L30.8431 23.3574L31.1168 22.6786H31.9982L32.3199 22.0832L31.6887 21.9282V21.178L29.7233 20.3085L28.3656 20.4633L27.5912 20.8563L27.6511 21.8331L26.8412 21.7139L26.7217 21.178L27.4961 20.4752L26.1025 20.4038L25.6976 20.535L25.519 20.9994L26.043 21.0946L25.9359 21.6069L25.0545 21.6663L24.9114 22.0116L23.6249 22.0475C23.6249 22.0475 23.5892 21.3209 23.5416 21.3209C23.4822 21.3209 24.5424 21.2972 24.5424 21.2972L25.3162 20.5469L24.8994 20.3325L24.3397 20.8802L23.4108 20.8327L22.863 20.0585H21.6718L20.433 20.9875H21.5647L21.6718 21.309L21.3739 21.595L22.6364 21.6307L22.8273 22.0832L21.41 22.0235L21.3382 21.6782L20.4568 21.4876L19.9804 21.2256L19.2184 21.2375C22.5176 18.9747 26.5075 17.6527 30.8193 17.6527ZM40.8833 24.644L41.0741 24.3582L41.7648 24.2151L41.9436 25.0489L42.3006 25.6445L42.5509 25.9184L42.9917 26.0971L42.5747 26.5973L41.7648 26.6687H41.1575L41.2289 25.9423L41.729 25.8471L41.6933 25.5017L41.2169 25.204L40.8833 24.9777V24.644ZM39.752 25.9541L40.1688 25.2871L40.7404 25.1562L41.1454 25.3228L41.0978 25.7872L40.2402 26.3947H39.7519V25.9541H39.752ZM28.3656 28.5388L27.9249 28.5744L27.9487 28.2649L28.1514 28.0264L28.4132 28.229L28.3656 28.5388ZM29.9022 28.0026L29.6043 28.0264L29.5449 28.3124L29.3064 28.4553L28.9372 28.491C28.9253 28.3958 28.9253 28.3363 28.9253 28.3363H28.7825V28.0265H29.3779L29.4973 27.7051H29.7353L30.0094 27.7526L29.9022 28.0026Z" fill="#0F5CB5"/>
<path d="M29.7472 35.0876V34.5309C28.499 34.5309 24.9572 33.317 24.9572 31.1753C23.4593 32.6985 24.9571 34.6624 29.7472 35.0876Z" fill="white"/>
<path d="M29.7128 36.3402V35.4356C25.1723 35.8531 24.9149 40.4923 29.9781 41.9536V41.1649C26.9433 39.6031 26.171 37.2448 29.7128 36.3402Z" fill="white"/>
<path d="M32.2794 36.3402V35.4356C36.8199 35.8531 37.0773 40.4923 32.0142 41.9536V41.1649C35.0489 39.6031 35.8213 37.2448 32.2794 36.3402Z" fill="white"/>
<path d="M32.2528 35.0876V34.5309C33.501 34.5309 37.0428 33.317 37.0428 31.1753C38.5407 32.6985 37.0428 34.6624 32.2528 35.0876Z" fill="white"/>
<path d="M31 27.0928C31.8617 27.0928 32.5603 26.4004 32.5603 25.5464C32.5603 24.6923 31.8617 24 31 24C30.1383 24 29.4397 24.6923 29.4397 25.5464C29.4397 26.4004 30.1383 27.0928 31 27.0928Z" fill="white"/>
<path d="M29.7518 30.8428V29.2732C29.7518 29.2732 29.1043 29.0799 28.7064 27.7423C28.3085 26.4046 23.7213 29.0644 20 28.933C20.7863 29.6914 21.4174 29.898 22.8085 29.9614C22.8962 30.6818 23.8507 30.5323 25.1021 30.5413C26.8273 31.2941 27.8432 31.3702 29.7518 30.8428Z" fill="white"/>
<path d="M32.2482 30.8428V29.2732C32.2482 29.2732 32.8957 29.0799 33.2936 27.7423C33.6915 26.4046 38.2787 29.0644 42 28.933C41.2136 29.6914 40.5826 29.898 39.1915 29.9614C39.1038 30.6818 38.1492 30.5323 36.8979 30.5413C35.1727 31.2941 34.1568 31.3702 32.2482 30.8428Z" fill="white"/>
<path fill-rule="evenodd" clip-rule="evenodd" d="M31.3372 42.2349L31.7801 26.7835H30.2199L30.6737 42.6147L31.3372 42.2349ZM31.3112 43.1426L30.6988 43.493L30.7894 46.652L31.2176 46.4069L31.3112 43.1426ZM30.8961 50.374L30.8291 48.039L31.1766 47.8401L31.1074 50.2531L30.8961 50.374ZM30.9212 51.2524L31 54L31.0814 51.1607L30.9212 51.2524Z" fill="white"/>
<path d="M30.3057 42.8351C28.956 44.0335 28.6596 45.0464 30.3057 46.6778L29.9 47.1495C28.3085 46.1057 26.9589 43.4845 30.3057 42.1546V42.8351Z" fill="white"/>
<path d="M31.7256 43.1289V42.3402C34.3078 43.3222 34.071 45.866 31.2809 47.4897C28.4908 49.1134 30.4149 50.25 30.4149 50.25L30.1496 50.5052C30.1496 50.5052 27.7702 48.7577 30.9376 46.817C34.105 44.8763 31.7256 43.1289 31.7256 43.1289Z" fill="white"/>
<path d="M31.7411 47.6211L31.4681 48.0619C31.4681 48.0619 32.9347 49.4691 31.1404 50.366C29.3461 51.2629 29.8454 51.9356 29.8454 51.9356C29.8454 51.9356 29.9579 51.2899 30.8206 50.884C34.222 49.2835 31.7411 47.6211 31.7411 47.6211Z" fill="white"/>
<path d="M24 8.9742C24.0117 8.96574 24.0181 8.95385 24.0206 8.94043C24.0231 8.92728 24.024 8.91379 24.0248 8.90043C24.0388 8.66256 24.0839 8.42986 24.1574 8.20324C24.2968 7.77315 24.5398 7.40767 24.89 7.11211C25.1935 6.85591 25.5426 6.68433 25.9305 6.58672C26.0549 6.55539 26.1812 6.53309 26.3089 6.52099C26.4596 6.50679 26.6104 6.50267 26.762 6.51477C26.9572 6.53036 27.1478 6.56539 27.3331 6.62657C27.5722 6.70551 27.7905 6.8213 27.9812 6.98387C28.045 7.03827 28.1073 7.0947 28.1667 7.15357C28.3704 7.35537 28.4996 7.59674 28.5478 7.87566C28.6756 8.61536 28.1966 9.27053 27.5065 9.44023C27.386 9.46988 27.263 9.48428 27.1387 9.48106C26.4711 9.46372 25.9536 9.01608 25.8064 8.44755C25.798 8.4151 25.7928 8.38182 25.7855 8.3491C25.7821 8.33392 25.7776 8.31903 25.7729 8.30421C25.7715 8.2998 25.7664 8.29882 25.7615 8.30169C25.7576 8.30393 25.7539 8.3068 25.7511 8.31015C25.6594 8.41783 25.5874 8.5367 25.5434 8.67039C25.4788 8.86631 25.4833 9.06216 25.5478 9.25738C25.5809 9.358 25.628 9.45219 25.6862 9.5412C25.7744 9.67615 25.8826 9.7941 26.0059 9.89913C26.1922 10.058 26.4014 10.1811 26.6289 10.2749C26.8196 10.3535 27.017 10.4093 27.2219 10.4403C27.3923 10.4661 27.5631 10.4769 27.7355 10.468C28.3212 10.4378 28.8218 10.218 29.2459 9.82641C29.4064 9.67817 29.5445 9.51141 29.6663 9.33164C29.8224 9.10125 29.9465 8.85491 30.0492 8.59795C30.0566 8.57921 30.0637 8.56033 30.0708 8.54145C30.1018 8.45881 30.1174 8.3735 30.1202 8.28561C30.125 8.13647 30.0994 7.99173 30.0569 7.84916C30.0075 7.68302 29.9362 7.52591 29.8504 7.37495C29.7083 7.12504 29.5321 6.89983 29.3289 6.69461C28.9709 6.33311 28.5546 6.05286 28.0841 5.84918C27.8152 5.73276 27.5363 5.64676 27.2478 5.58963C27.1129 5.56292 26.9771 5.54278 26.8405 5.52817C26.7151 5.51474 26.5892 5.50796 26.4631 5.50761C26.3669 5.50733 26.2706 5.50985 26.1744 5.5109C26.1607 5.51104 26.147 5.51055 26.1334 5.50908C26.1311 5.5088 26.1277 5.50223 26.1279 5.4988C26.1282 5.49481 26.1313 5.49041 26.1343 5.48726C26.3756 5.2352 26.6466 5.02074 26.965 4.86685C27.1426 4.78098 27.3285 4.71896 27.5237 4.68498C27.698 4.65463 27.8736 4.6461 28.0508 4.66114C28.373 4.68848 28.6734 4.78434 28.9595 4.92775C29.1888 5.0427 29.3997 5.18471 29.5982 5.34462C29.825 5.52747 30.0311 5.7308 30.2227 5.94833C30.4683 6.22711 30.6863 6.52539 30.8856 6.83704C30.9208 6.89206 30.9546 6.94793 30.9892 7.00324C30.9939 7.01079 30.9996 7.01792 31.0061 7.02408C31.0082 7.0261 31.0165 7.02576 31.0182 7.02366C31.0279 7.01135 31.0372 6.99856 31.0454 6.98527C31.1327 6.84333 31.2231 6.70342 31.3185 6.56658C31.4902 6.32038 31.6751 6.08419 31.8787 5.86211C32.0902 5.63151 32.3183 5.41846 32.5719 5.23205C32.761 5.09304 32.9611 4.97166 33.1761 4.8744C33.3703 4.78658 33.572 4.72141 33.7829 4.68498C33.9415 4.65764 34.1014 4.64652 34.2622 4.65666C34.5566 4.67512 34.8344 4.75315 35.0964 4.88517C35.2681 4.97173 35.4269 5.07724 35.5758 5.19737C35.6818 5.28302 35.7815 5.37539 35.8763 5.47279C35.8826 5.47922 35.8888 5.48587 35.8939 5.49328C35.8959 5.49621 35.8961 5.50223 35.8943 5.5053C35.8926 5.50831 35.8873 5.51118 35.8837 5.51118C35.863 5.51139 35.8425 5.51097 35.8218 5.5102C35.7004 5.50565 35.579 5.50614 35.4576 5.50992C35.3475 5.51334 35.2381 5.52285 35.1288 5.53502C35.0104 5.54823 34.8929 5.56697 34.7761 5.58991C34.394 5.66494 34.0306 5.79135 33.6863 5.96924C33.2898 6.17404 32.9377 6.43582 32.6338 6.7583C32.4452 6.95835 32.2817 7.17609 32.1506 7.41641C32.0685 7.56688 32.0012 7.72316 31.9558 7.88803C31.918 8.02494 31.8985 8.16381 31.9053 8.30596C31.9093 8.38937 31.9257 8.46999 31.9555 8.5481C31.9955 8.65291 32.0394 8.75604 32.0878 8.85743C32.2003 9.09342 32.3342 9.31689 32.4979 9.52281C32.6463 9.70929 32.815 9.87584 33.0089 10.0176C33.2768 10.2134 33.5738 10.348 33.9008 10.4185C34.0194 10.4441 34.1397 10.4591 34.2612 10.4672C34.3898 10.4756 34.518 10.4728 34.6457 10.4608C34.9074 10.4363 35.1597 10.3735 35.4017 10.2726C35.5987 10.1904 35.7824 10.0862 35.9498 9.95527C36.0719 9.85969 36.1819 9.7525 36.2754 9.62965C36.3634 9.51393 36.4335 9.38905 36.4782 9.25102C36.5059 9.16523 36.5227 9.07747 36.5264 8.98776C36.5322 8.84456 36.5026 8.70766 36.4437 8.57669C36.4011 8.48188 36.3445 8.39539 36.2771 8.31561C36.2729 8.31057 36.2676 8.30589 36.2618 8.30288C36.2591 8.30148 36.2515 8.30316 36.2504 8.30547C36.2465 8.3133 36.2432 8.32183 36.2419 8.33043C36.2238 8.44839 36.1887 8.56152 36.1387 8.67011C35.9361 9.11013 35.5434 9.36856 35.1638 9.44771C35.0195 9.47778 34.8745 9.48743 34.7268 9.47484C34.2688 9.43582 33.825 9.16271 33.5995 8.71773C33.5288 8.57809 33.4812 8.43098 33.4654 8.27631C33.4189 7.82007 33.5624 7.43011 33.902 7.11092C33.93 7.08456 33.9587 7.05876 33.9871 7.03275C34.1698 6.86501 34.3805 6.74103 34.6143 6.65391C34.7797 6.59224 34.9505 6.55113 35.1263 6.52931C35.2424 6.51491 35.3589 6.50533 35.4759 6.50763C35.9829 6.51763 36.4523 6.65097 36.8771 6.92332C37.3181 7.20608 37.6299 7.5917 37.8203 8.0713C37.8759 8.21135 37.9143 8.3563 37.9447 8.50327C37.9587 8.57117 37.9708 8.63955 37.9801 8.70815C37.9865 8.75457 37.9863 8.80177 37.9889 8.84869C37.99 8.86883 37.9893 8.88917 38 8.90749V9.2564C37.9969 9.26675 37.9929 9.27696 37.9911 9.28752C37.9892 9.2985 37.9895 9.30982 37.9889 9.32094C37.9866 9.36339 37.9872 9.40618 37.9814 9.44813C37.9681 9.5456 37.9486 9.64209 37.9237 9.73754C37.8414 10.053 37.7024 10.343 37.5122 10.6099C37.3167 10.884 37.0793 11.1188 36.8063 11.3193C36.3201 11.6765 35.7743 11.9027 35.1797 12.0205C35.0472 12.0467 34.9136 12.066 34.7789 12.0788C34.6648 12.0896 34.5506 12.0978 34.436 12.1C34.2271 12.104 34.0193 12.0913 33.8122 12.064C33.6668 12.0449 33.5231 12.0178 33.3808 11.9829C32.9361 11.874 32.5255 11.6921 32.15 11.4351C31.7938 11.1912 31.4925 10.8934 31.2386 10.5491C31.169 10.4547 31.1039 10.3573 31.0424 10.2577C31.0353 10.2463 31.0272 10.2355 31.0184 10.2252C31.0166 10.2231 31.0078 10.2231 31.0063 10.225C30.9942 10.2411 30.9822 10.2575 30.9716 10.2746C30.8525 10.4662 30.7192 10.6478 30.5695 10.8178C30.2289 11.2047 29.825 11.5119 29.3535 11.733C29.0463 11.8771 28.7246 11.978 28.3889 12.0367C28.2896 12.0541 28.1901 12.0682 28.0897 12.0782C27.9757 12.0896 27.8615 12.0978 27.7469 12.1001C27.5748 12.1034 27.4034 12.0951 27.2322 12.0775C27.1091 12.0648 26.987 12.0468 26.8654 12.0241C26.5354 11.9623 26.2179 11.8627 25.9132 11.7248C25.5124 11.5434 25.1519 11.305 24.8417 10.9967C24.6282 10.7845 24.4494 10.5479 24.3113 10.2824C24.1464 9.96548 24.0495 9.63 24.0255 9.27486C24.0244 9.25927 24.023 9.24361 24.0204 9.22823C24.0183 9.21683 24.0115 9.20788 24.0004 9.20263V8.97448L24 8.9742Z" fill="#EE9518"/>
<path d="M30.9723 15C30.966 14.9928 30.9575 14.9903 30.9483 14.9888C30.8625 14.9747 30.7765 14.9617 30.691 14.9459C30.5559 14.9209 30.4225 14.8892 30.2937 14.8409C30.1841 14.7998 30.081 14.747 29.9861 14.6793C29.9713 14.6687 29.9567 14.6579 29.9424 14.6467C29.9283 14.6356 29.9259 14.6267 29.9325 14.6118C29.9416 14.5913 29.9511 14.571 29.9602 14.5505C30.0133 14.4313 30.0558 14.3088 30.0847 14.1817C30.1181 14.0343 30.1295 13.8853 30.1157 13.735C30.1017 13.5826 30.0624 13.4358 30.0032 13.2942C29.9536 13.1759 29.8922 13.0637 29.8222 12.9558C29.7164 12.7928 29.5937 12.6426 29.4621 12.499C29.4468 12.4824 29.4312 12.466 29.4165 12.4488C29.4126 12.4441 29.412 12.4368 29.409 12.4285C29.4319 12.4216 29.4535 12.4149 29.4751 12.4086C29.6332 12.363 29.7915 12.3179 29.9463 12.2623C30.0086 12.24 30.0706 12.2165 30.1316 12.191C30.2434 12.1441 30.35 12.0875 30.4511 12.0213C30.4662 12.0115 30.4818 12.0025 30.4958 11.994C30.5125 12.0009 30.5164 12.0143 30.5223 12.0263C30.5914 12.1676 30.6549 12.3112 30.7116 12.4576C30.7919 12.665 30.8541 12.8774 30.9037 13.0936C30.9401 13.2529 30.9705 13.4133 31 13.5739C31.0012 13.5804 31.0036 13.5867 31.006 13.5953C31.012 13.5909 31.0203 13.5881 31.0212 13.5837C31.0287 13.5487 31.0349 13.5135 31.0415 13.4783C31.0752 13.298 31.1118 13.1183 31.1575 12.9404C31.2286 12.6643 31.327 12.3977 31.4481 12.1389C31.4681 12.0961 31.4888 12.0538 31.509 12.0112C31.5131 12.0024 31.5193 11.9969 31.5307 11.9951C31.5374 11.999 31.5456 12.003 31.5531 12.008C31.7047 12.1107 31.8696 12.1875 32.0421 12.2498C32.1947 12.305 32.3501 12.3513 32.5061 12.396C32.5412 12.4061 32.5762 12.4162 32.6126 12.4268C32.6113 12.4344 32.6123 12.4422 32.6089 12.4463C32.593 12.4653 32.5759 12.4835 32.5591 12.5018C32.446 12.6253 32.3395 12.754 32.2446 12.8916C32.1664 13.0049 32.0972 13.1232 32.0407 13.2484C31.9757 13.3926 31.9316 13.5424 31.912 13.6988C31.9033 13.7678 31.9031 13.8372 31.9045 13.9066C31.9078 14.0691 31.9431 14.2258 31.9957 14.3792C32.019 14.4471 32.0466 14.5133 32.0761 14.5788C32.0834 14.595 32.0902 14.6114 32.0965 14.626C32.0894 14.6443 32.075 14.6521 32.0623 14.6615C31.9522 14.7436 31.8311 14.806 31.7008 14.8516C31.6014 14.8864 31.4996 14.9121 31.3964 14.9332C31.291 14.9548 31.1851 14.973 31.0785 14.9883C31.0692 14.9896 31.0608 14.9921 31.0548 14.9998H30.9723V15Z" fill="#EE9518"/>
<path d="M33.5923 3.62755C33.5721 3.63356 33.5506 3.64041 33.5288 3.64643C33.2995 3.70943 33.0722 3.77795 32.8495 3.86081C32.6846 3.92213 32.5235 3.99156 32.3671 4.07183C31.9961 4.26244 31.6855 4.52171 31.4339 4.84895C31.3085 5.012 31.198 5.18429 31.0963 5.3621C31.0751 5.39916 31.0548 5.43678 31.0338 5.47391C31.0294 5.4816 31.0241 5.48908 31.0179 5.49544C31.0159 5.49747 31.0074 5.49726 31.0058 5.49523C30.9976 5.48461 30.9902 5.47335 30.9834 5.46181C30.9301 5.37056 30.8784 5.27841 30.8235 5.18814C30.7356 5.04382 30.638 4.906 30.5306 4.77469C30.3047 4.49857 30.0331 4.27545 29.7168 4.10379C29.5202 3.99702 29.3144 3.91024 29.1034 3.83487C28.9033 3.76341 28.6998 3.70244 28.4948 3.64643C28.4771 3.6416 28.4595 3.63671 28.442 3.63146C28.4298 3.62783 28.4269 3.61671 28.4346 3.60482C28.4383 3.59916 28.4421 3.59357 28.446 3.58804C28.4991 3.51511 28.5534 3.4431 28.6119 3.37415C28.7299 3.23494 28.8685 3.11943 29.0275 3.02692C29.1518 2.95462 29.2823 2.89512 29.4159 2.84156C29.5239 2.79821 29.6339 2.75989 29.7443 2.72269C29.7593 2.71759 29.7754 2.71479 29.7876 2.69969C29.7911 2.6685 29.7954 2.63529 29.7985 2.602C29.8169 2.40482 29.8681 2.21513 29.9356 2.02913C29.9954 1.86468 30.067 1.70505 30.1432 1.5473C30.2653 1.29446 30.3996 1.04778 30.5372 0.802774C30.6792 0.549936 30.8258 0.299545 30.9741 0.050134C30.9842 0.0329332 30.9956 0.0164317 31.0062 0C31.0126 0.00237735 31.018 0.00279688 31.0207 0.00566368C31.0267 0.0123063 31.0318 0.0197879 31.0363 0.0274793C31.2874 0.451276 31.5364 0.876192 31.7632 1.31299C31.8627 1.50444 31.9568 1.69826 32.0378 1.89789C32.0927 2.03305 32.1408 2.17038 32.1753 2.31197C32.1992 2.40993 32.218 2.50873 32.2259 2.60928C32.226 2.61151 32.2261 2.61375 32.2264 2.61599C32.2409 2.72689 32.2167 2.70031 32.3263 2.73821C32.486 2.79345 32.6445 2.85177 32.7976 2.92323C32.8845 2.96378 32.969 3.00846 33.0499 3.0595C33.1778 3.14012 33.2915 3.23669 33.3906 3.34954C33.4592 3.42771 33.5217 3.5105 33.5824 3.59462C33.5888 3.60357 33.5964 3.61252 33.5923 3.62755H33.5923Z" fill="#EE9518"/>
<path d="M57.4082 48.2935C55.5459 49.5438 55.2505 50.9055 55.1992 51.2892C54.9038 51.4626 54.6341 51.6111 54.3772 51.7349C54.7753 51.1035 55.1478 50.4598 55.4817 49.8037C56.0468 48.6772 56.5477 47.526 56.9587 46.3376C57.0101 46.2138 57.0486 46.0776 57.0871 45.9414C57.4082 44.9635 57.8834 44.0474 58.4999 43.218C58.5384 43.1685 58.577 43.1066 58.6283 43.0571C63.8427 40.3089 61.4538 34.6887 61.4538 34.6887C61.5309 35.9266 60.298 36.8675 59.0136 39.1329C57.9348 41.0516 58.2944 42.401 58.4228 42.76C58.1531 43.1561 57.9091 43.5027 57.6908 43.7874C57.7807 43.4284 57.8577 43.0694 57.9219 42.6981C58.166 41.4725 58.3072 40.2346 58.3715 38.9967L58.3972 38.5263C58.41 38.3653 58.41 38.2168 58.41 38.0559V37.1274C58.3972 36.8179 58.3843 36.5085 58.3715 36.199C58.3586 36.038 58.3586 35.8895 58.3458 35.7286L58.3072 35.2705C58.2816 34.9611 58.2944 34.6516 58.3586 34.3545L58.7311 32.5842C62.5327 28.1772 58.166 23.8074 58.166 23.8074C58.7054 24.9339 57.9219 26.2461 57.588 28.8086C57.3055 30.975 58.166 32.1015 58.4228 32.3986C58.3201 32.9185 58.2045 33.3641 58.1018 33.7231L58.0632 33.4384C58.0247 33.1289 57.9476 32.8318 57.8963 32.5224L57.8064 32.0643C57.7807 31.9158 57.7421 31.7548 57.7036 31.6063C57.5495 30.9997 57.4082 30.4055 57.2027 29.8113L57.0615 29.3657L56.9972 29.1428L56.9202 28.92L56.5991 28.0411C56.3936 27.5335 56.1753 27.026 55.9441 26.5308C55.5331 25.6395 55.2762 24.6863 55.2249 23.7084C55.212 23.4855 55.1992 23.2627 55.1735 23.0399C57.2156 17.6549 51.5902 14.9562 51.5902 14.9562C52.4892 15.8352 52.2067 17.3331 52.7846 19.846C53.2855 21.9876 54.4799 22.7675 54.8139 22.9532C54.9295 23.6836 54.9808 24.2902 55.0194 24.7234C55.0065 24.7111 55.0065 24.6987 54.9937 24.6739L54.7625 24.2654C54.6854 24.1292 54.5955 24.0055 54.5185 23.8693L54.0176 23.077L53.4782 22.3095C53.3883 22.1857 53.2984 22.0495 53.2085 21.9257L52.9259 21.5544C52.6305 21.1582 52.3223 20.7745 52.0012 20.4031C51.5517 19.8584 50.9352 19.0538 50.3958 18.4843C50.1389 18.212 49.9206 17.9149 49.7665 17.593C47.429 12.827 41.7009 14.1764 41.7009 14.1764C42.9852 14.2506 43.8072 15.5628 45.9777 17.0607C47.6858 18.2491 49.0472 18.1748 49.5481 18.0882C49.6123 18.1129 49.6766 18.1253 49.7408 18.1501L50.3958 18.8062C51.2563 19.7099 52.0654 20.6507 52.7846 21.6658L53.0543 22.0372C53.1442 22.161 53.2213 22.2971 53.3112 22.4209L53.8249 23.2008L54.0433 23.5598C53.4782 23.0894 52.9002 22.6933 52.3351 22.3343C49.2527 17.4321 43.5375 19.9946 43.5375 19.9946C44.8218 19.8584 45.8493 21.0097 48.251 22.1362C50.293 23.0894 51.6673 22.6809 52.0397 22.5447C52.8617 23.0027 53.5424 23.4608 53.9277 23.7331C54.1717 23.9064 54.39 24.1292 54.5185 24.3892L54.7368 24.7977C55.3276 25.8747 55.8028 27.0136 56.2395 28.1649L56.5349 29.0314L56.6119 29.2542L56.6762 29.4771L56.8046 29.9227C56.9844 30.5045 57.1128 31.1111 57.2413 31.7053C57.2798 31.8539 57.3055 32.0024 57.3312 32.151V32.1634C56.9459 31.5939 56.5477 31.074 56.1239 30.6036C54.6597 25.0453 48.4308 25.8871 48.4308 25.8871C49.6894 26.1223 50.3316 27.5211 52.2837 29.2666C53.9405 30.7645 55.3918 30.7521 55.7771 30.7274C56.2266 31.1978 56.5863 31.6187 56.856 31.9405C57.2284 32.3862 57.4853 32.9309 57.5366 33.5127C57.5366 33.5127 57.5366 33.5127 57.5366 33.5251L57.6394 34.4288L57.6651 34.6516L57.6779 34.8744L57.7036 35.3324L57.7293 35.7905C57.7421 35.939 57.7421 36.0999 57.7421 36.2485C57.7421 36.558 57.755 36.8551 57.755 37.1646L57.7293 38.0806C57.7293 38.2292 57.7165 38.3777 57.7036 38.5387L57.6651 38.9967C57.6137 39.6528 57.5367 40.3089 57.4467 40.9526C57.3183 40.4079 57.1514 39.888 56.9844 39.3928C57.6779 33.6984 51.5388 32.3367 51.5388 32.3367C52.6305 32.9928 52.7204 34.5154 53.8892 36.8179C54.8909 38.7862 56.2395 39.2814 56.6248 39.3804C56.7661 39.7394 56.8945 40.0613 56.9972 40.346C57.2541 41.0516 57.3183 41.8315 57.1385 42.5619V42.5743C56.8688 43.7627 56.5349 44.9263 56.0982 46.0652C55.6615 47.2041 55.1606 48.3058 54.5827 49.3828C54.4157 49.6923 54.2359 50.0018 54.0433 50.2989C54.146 49.6552 54.2102 49.0362 54.2359 48.442C57.0358 43.3913 51.8599 39.9499 51.8599 39.9499C52.6305 40.9402 52.1296 42.3886 52.3351 44.9511C52.5149 47.1298 53.5809 48.0706 53.902 48.3059C53.902 48.3925 53.902 48.4668 53.902 48.5534C53.8892 49.9399 53.4525 51.3016 52.6177 52.4281L52.6048 52.4405C51.8856 53.4308 51.0765 54.3469 50.216 55.2258C49.9976 55.4363 49.7921 55.6715 49.561 55.8695L48.8803 56.4885C48.8674 56.4761 48.8674 56.4885 48.8674 56.4761C49.0729 56.1295 49.2527 55.7705 49.4197 55.4239C54.0433 51.8092 50.6398 46.7089 50.6398 46.7089C50.948 47.9097 49.9077 49.061 49.0729 51.4997C48.3665 53.5794 48.9702 54.8421 49.1757 55.1763C49.0344 55.4858 48.906 55.7829 48.7904 56.0305C48.495 56.6618 48.0455 57.2189 47.4804 57.6398C47.4804 57.6398 47.4804 57.6398 47.4675 57.6521C46.4914 58.3949 45.4768 59.1005 44.4108 59.7071C43.7815 60.0661 43.1522 60.4003 42.4972 60.7098C42.7669 60.4375 43.0237 60.1651 43.2421 59.9052C47.6602 57.9369 46.0419 53.2204 46.0419 53.2204C46.0291 54.2355 44.9631 54.9411 43.7943 56.7237C42.7926 58.234 43.0109 59.3605 43.1008 59.6576C42.9595 59.8433 42.8182 60.0166 42.6898 60.1651C42.266 60.6727 41.7266 61.0812 41.0972 61.3412C41.0972 61.3412 41.0972 61.3412 41.0844 61.3412C39.9413 61.7992 38.7598 62.1953 37.5782 62.5172H37.5653C37.2443 62.6038 37.0002 62.8886 37.0002 63.2104C36.9874 63.7675 37.514 64.1141 38.0149 63.9655C39.2735 63.5942 40.4936 63.1485 41.688 62.641C42.8825 62.1211 44.0255 61.5145 45.13 60.846C45.7979 60.4499 46.44 60.0166 47.0694 59.5586C47.917 58.9396 48.9317 58.5682 49.9976 58.4816C55.5459 60.5365 58.4357 55.1516 58.4357 55.1516C57.511 56.0057 55.9569 55.7086 53.3497 56.2285C51.1278 56.6742 50.293 57.8131 50.1004 58.1473C49.561 58.2092 49.0986 58.2587 48.7005 58.2835C49.0472 57.9864 49.394 57.6769 49.7408 57.3674L50.4215 56.699C50.6526 56.4761 50.8581 56.2409 51.0893 56.0057C51.9498 55.0649 52.7718 54.0869 53.491 53.0471C53.5039 53.0223 53.5167 53.0099 53.5295 52.9852C53.8892 52.4776 54.3644 52.0691 54.9295 51.7844C55.0194 51.7349 55.1093 51.6978 55.1992 51.6482C61.1456 51.4378 61.608 45.3844 61.608 45.3844C61.1456 46.5109 59.5916 46.8203 57.4082 48.2935Z" fill="#EE9518"/>
<path d="M4.40812 48.2935C6.1959 49.5438 6.47949 50.9055 6.52881 51.2892C6.81239 51.4626 7.07131 51.6111 7.3179 51.7349C6.93569 51.1035 6.57812 50.4598 6.25755 49.8037C5.71505 48.6772 5.2342 47.526 4.83965 46.3376C4.79033 46.2138 4.75335 46.0776 4.71636 45.9414C4.40812 44.9635 3.95192 44.0474 3.36011 43.218C3.32312 43.1685 3.28613 43.1066 3.23681 43.0571C-1.76899 40.3089 0.524308 34.6887 0.524308 34.6887C0.450331 35.9266 1.63397 36.8675 2.86692 39.1329C3.90261 41.0516 3.55739 42.401 3.43409 42.76C3.69302 43.1561 3.92727 43.5027 4.13687 43.7874C4.05057 43.4284 3.97658 43.0694 3.91494 42.6981C3.68067 41.4725 3.54505 40.2346 3.4834 38.9967L3.45875 38.5263C3.44642 38.3653 3.44642 38.2168 3.44642 38.0559V37.1274C3.45875 36.8179 3.47107 36.5085 3.4834 36.199C3.49573 36.038 3.49574 35.8895 3.50807 35.7286L3.54505 35.2705C3.56971 34.9611 3.55739 34.6516 3.49574 34.3545L3.13818 32.5842C-0.511365 28.1772 3.68069 23.8074 3.68069 23.8074C3.16284 24.9339 3.91495 26.2461 4.23552 28.8086C4.50677 30.975 3.68069 32.1015 3.43409 32.3986C3.53273 32.9185 3.6437 33.3641 3.74233 33.7231L3.77931 33.4384C3.8163 33.1289 3.89029 32.8318 3.9396 32.5224L4.0259 32.0643C4.05056 31.9158 4.08756 31.7548 4.12455 31.6063C4.2725 30.9997 4.40813 30.4055 4.6054 29.8113L4.74102 29.3657L4.80267 29.1428L4.87665 28.92L5.18489 28.0411C5.38216 27.5335 5.59176 27.026 5.81369 26.5308C6.20824 25.6395 6.45482 24.6863 6.50414 23.7084C6.51647 23.4855 6.5288 23.2627 6.55346 23.0399C4.59306 17.6549 9.99341 14.9562 9.99341 14.9562C9.13034 15.8352 9.40159 17.3331 8.84676 19.846C8.3659 21.9876 7.21926 22.7675 6.8987 22.9532C6.78773 23.6836 6.73841 24.2902 6.70143 24.7234C6.71376 24.7111 6.71375 24.6987 6.72608 24.6739L6.94802 24.2654C7.02199 24.1292 7.10829 24.0055 7.18227 23.8693L7.66312 23.077L8.18097 22.3095C8.26728 22.1857 8.35358 22.0495 8.43989 21.9257L8.71113 21.5544C8.99471 21.1582 9.29063 20.7745 9.59887 20.4031C10.0304 19.8584 10.6222 19.0538 11.1401 18.4843C11.3867 18.212 11.5962 17.9149 11.7442 17.593C13.9882 12.827 19.4872 14.1764 19.4872 14.1764C18.2542 14.2506 17.4651 15.5628 15.3814 17.0607C13.7416 18.2491 12.4347 18.1748 11.9538 18.0882C11.8922 18.1129 11.8305 18.1253 11.7689 18.1501L11.1401 18.8062C10.314 19.7099 9.53721 20.6507 8.84676 21.6658L8.58784 22.0372C8.50153 22.161 8.42756 22.2971 8.34125 22.4209L7.84807 23.2008L7.63847 23.5598C8.18097 23.0894 8.73579 22.6933 9.27829 22.3343C12.2374 17.4321 17.724 19.9946 17.724 19.9946C16.4911 19.8584 15.5047 21.0097 13.1991 22.1362C11.2387 23.0894 9.91943 22.6809 9.56188 22.5447C8.77279 23.0027 8.11932 23.4608 7.74944 23.7331C7.51518 23.9064 7.30556 24.1292 7.18227 24.3892L6.97267 24.7977C6.40551 25.8747 5.94932 27.0136 5.53012 28.1649L5.24653 29.0314L5.17256 29.2542L5.11091 29.4771L4.98762 29.9227C4.815 30.5045 4.6917 31.1111 4.56841 31.7053C4.53142 31.8539 4.50677 32.0024 4.48211 32.151V32.1634C4.85199 31.5939 5.2342 31.074 5.64107 30.6036C7.04664 25.0453 13.0265 25.8871 13.0265 25.8871C11.8182 26.1223 11.2017 27.5211 9.32761 29.2666C7.7371 30.7645 6.34387 30.7521 5.97398 30.7274C5.54245 31.1978 5.19721 31.6187 4.93829 31.9405C4.58074 32.3862 4.33414 32.9309 4.28482 33.5127C4.28482 33.5127 4.28482 33.5127 4.28482 33.5251L4.18619 34.4288L4.16153 34.6516L4.1492 34.8744L4.12455 35.3324L4.09988 35.7905C4.08755 35.939 4.08755 36.0999 4.08755 36.2485C4.08755 36.558 4.07523 36.8551 4.07523 37.1646L4.09988 38.0806C4.09988 38.2292 4.11222 38.3777 4.12455 38.5387L4.16153 38.9967C4.21084 39.6528 4.28483 40.3089 4.37114 40.9526C4.49443 40.4079 4.65471 39.888 4.815 39.3928C4.1492 33.6984 10.0427 32.3367 10.0427 32.3367C8.99472 32.9928 8.90841 34.5154 7.78642 36.8179C6.82471 38.7862 5.53012 39.2814 5.16023 39.3804C5.02461 39.7394 4.90131 40.0613 4.80267 40.346C4.55608 41.0516 4.49444 41.8315 4.66705 42.5619V42.5743C4.92597 43.7627 5.24654 44.9263 5.66574 46.0652C6.08495 47.2041 6.56579 48.3058 7.12062 49.3828C7.2809 49.6923 7.45353 50.0018 7.63847 50.2989C7.53983 49.6552 7.47819 49.0362 7.45353 48.442C4.76568 43.3913 9.73449 39.9499 9.73449 39.9499C8.99472 40.9402 9.47556 42.3886 9.27829 44.9511C9.10568 47.1298 8.08233 48.0706 7.77409 48.3059C7.77409 48.3925 7.77409 48.4668 7.77409 48.5534C7.78642 49.9399 8.20563 51.3016 9.00705 52.4281L9.01937 52.4405C9.70983 53.4308 10.4866 54.3469 11.3127 55.2258C11.5223 55.4363 11.7196 55.6715 11.9415 55.8695L12.5949 56.4885C12.6073 56.4761 12.6073 56.4885 12.6073 56.4761C12.41 56.1295 12.2374 55.7705 12.0771 55.4239C7.63847 51.8092 10.9058 46.7089 10.9058 46.7089C10.6099 47.9097 11.6086 49.061 12.41 51.4997C13.0881 53.5794 12.5086 54.8421 12.3114 55.1763C12.447 55.4858 12.5703 55.7829 12.6813 56.0305C12.9648 56.6618 13.3964 57.2189 13.9389 57.6398C13.9389 57.6398 13.9389 57.6398 13.9512 57.6521C14.8882 58.3949 15.8623 59.1005 16.8856 59.7071C17.4898 60.0661 18.0939 60.4003 18.7227 60.7098C18.4638 60.4375 18.2172 60.1651 18.0076 59.9052C13.7663 57.9369 15.3198 53.2204 15.3198 53.2204C15.3321 54.2355 16.3555 54.9411 17.4774 56.7237C18.4391 58.234 18.2295 59.3605 18.1432 59.6576C18.2789 59.8433 18.4145 60.0166 18.5378 60.1651C18.9447 60.6727 19.4625 61.0812 20.0666 61.3412C20.0666 61.3412 20.0667 61.3412 20.079 61.3412C21.1763 61.7992 22.3106 62.1953 23.445 62.5172H23.4573C23.7655 62.6038 23.9998 62.8886 23.9998 63.2104C24.0121 63.7675 23.5066 64.1141 23.0257 63.9655C21.8174 63.5942 20.6461 63.1485 19.4995 62.641C18.3528 62.1211 17.2555 61.5145 16.1952 60.846C15.554 60.4499 14.9376 60.0166 14.3334 59.5586C13.5197 58.9396 12.5456 58.5682 11.5223 58.4816C6.19591 60.5365 3.42175 55.1516 3.42175 55.1516C4.30948 56.0057 5.80137 55.7086 8.30427 56.2285C10.4373 56.6742 11.2387 57.8131 11.4236 58.1473C11.9415 58.2092 12.3853 58.2587 12.7676 58.2835C12.4347 57.9864 12.1018 57.6769 11.7689 57.3674L11.1154 56.699C10.8935 56.4761 10.6962 56.2409 10.4743 56.0057C9.64819 55.0649 8.85909 54.0869 8.16863 53.0471C8.1563 53.0223 8.14398 53.0099 8.13165 52.9852C7.78642 52.4776 7.33023 52.0691 6.78773 51.7844C6.70142 51.7349 6.61512 51.6978 6.52881 51.6482C0.820227 51.4378 0.37636 45.3844 0.37636 45.3844C0.820224 46.5109 2.29976 46.8203 4.40812 48.2935Z" fill="#EE9518"/>
<path d="M76.9769 27.6375L75.5109 29.168V31.9323H73V21H75.5109V26.107L80.3456 21H83.1528L78.63 25.8727L83.4179 31.9323H80.4703L76.9769 27.6375Z" fill="white"/>
<path d="M91.2467 29.5897H86.1781L85.2112 31.9323H82.6223L87.4881 21H89.9834L94.8649 31.9323H92.2136L91.2467 29.5897ZM90.4513 27.6687L88.7202 23.4832L86.9891 27.6687H90.4513Z" fill="white"/>
<path d="M104.84 29.8708V31.9323H95.2957V30.2925L101.284 23.0615H95.4205V21H104.606V22.6398L98.6332 29.8708H104.84Z" fill="white"/>
<path d="M116.395 31.9323L116.379 25.3729L113.167 30.7766H112.028L108.831 25.5135V31.9323H106.461V21H108.55L112.637 27.7937L116.66 21H118.734L118.766 31.9323H116.395Z" fill="white"/>
<path d="M129.809 29.902V31.9323H121.356V21H129.606V23.0303H123.867V25.4042H128.935V27.372H123.867V29.902H129.809Z" fill="white"/>
<path d="M134.08 23.0615H130.587V21H140.1V23.0615H136.607V31.9323H134.08V23.0615Z" fill="white"/>
<path d="M78.7964 38.3368V42.8732H78.2358V39.2855L76.3988 42.3213H76.1228L74.2858 39.2769V42.8732H73.7252V38.3368H74.3462L76.2694 41.6054L78.2272 38.3368H78.7964Z" fill="white"/>
<path d="M84.5061 40.7948H80.7113C80.7458 41.2662 80.9269 41.6486 81.2547 41.9418C81.5824 42.2293 81.9964 42.373 82.4966 42.373C82.7783 42.373 83.037 42.3241 83.2728 42.2264C83.5085 42.1229 83.7126 41.9734 83.8851 41.7779L84.2301 42.1747C84.0288 42.4161 83.7759 42.6001 83.4711 42.7266C83.1722 42.8531 82.8416 42.9164 82.4793 42.9164C82.0136 42.9164 81.5996 42.8186 81.2374 42.6231C80.8809 42.4219 80.6021 42.1459 80.4009 41.7952C80.1996 41.4445 80.099 41.0477 80.099 40.605C80.099 40.1623 80.1939 39.7656 80.3836 39.4149C80.5791 39.0641 80.8436 38.791 81.1771 38.5955C81.5163 38.4001 81.8957 38.3023 82.3155 38.3023C82.7352 38.3023 83.1118 38.4001 83.4453 38.5955C83.7787 38.791 84.0403 39.0641 84.2301 39.4149C84.4198 39.7598 84.5147 40.1566 84.5147 40.605L84.5061 40.7948ZM82.3155 38.8284C81.8785 38.8284 81.5105 38.9693 81.2115 39.251C80.9183 39.527 80.7516 39.8892 80.7113 40.3377H83.9282C83.888 39.8892 83.7184 39.527 83.4194 39.251C83.1262 38.9693 82.7582 38.8284 82.3155 38.8284Z" fill="white"/>
<path d="M89.7196 40.8551H88.7365V42.8732H88.1241V40.8551H87.1409L85.7524 42.8732H85.0193L86.6494 40.536L85.1487 38.3368H85.8128L87.1409 40.329H88.1241V38.3368H88.7365V40.329H89.7196L91.0564 38.3368H91.7205L90.2199 40.5446L91.8499 42.8732H91.1168L89.7196 40.8551Z" fill="white"/>
<path d="M97.2933 42.3385V43.9685H96.7155V42.8732H92.6534V43.9685H92.0756V42.3385H92.3343C92.639 42.3213 92.846 42.097 92.9553 41.6658C93.0645 41.2346 93.1393 40.6309 93.1795 39.8547L93.2399 38.3368H96.5861V42.3385H97.2933ZM93.7401 39.8892C93.7113 40.5331 93.6567 41.065 93.5762 41.4847C93.4957 41.8987 93.352 42.1833 93.145 42.3385H95.9738V38.8801H93.7918L93.7401 39.8892Z" fill="white"/>
<path d="M102.342 38.3368L100.074 43.4166C99.8896 43.842 99.6768 44.1439 99.4353 44.3221C99.1939 44.5004 98.9035 44.5895 98.5643 44.5895C98.3458 44.5895 98.1417 44.555 97.952 44.486C97.7622 44.417 97.5984 44.3135 97.4604 44.1755L97.745 43.7184C97.975 43.9484 98.2509 44.0634 98.5729 44.0634C98.7799 44.0634 98.9553 44.0059 99.099 43.8909C99.2485 43.7759 99.3865 43.5804 99.513 43.3045L99.7113 42.8646L97.6846 38.3368H98.3228L100.03 42.1919L101.738 38.3368H102.342Z" fill="white"/>
<path d="M103.296 38.3368H103.908V40.3463H106.763V38.3368H107.375V42.8732H106.763V40.8724H103.908V42.8732H103.296V38.3368Z" fill="white"/>
<path d="M110.677 38.3023C111.269 38.3023 111.723 38.4518 112.039 38.7508C112.355 39.044 112.514 39.481 112.514 40.0617V42.8732H111.927V42.166C111.789 42.4018 111.585 42.5858 111.315 42.718C111.05 42.8502 110.734 42.9164 110.366 42.9164C109.86 42.9164 109.458 42.7956 109.159 42.5541C108.86 42.3126 108.71 41.9935 108.71 41.5968C108.71 41.2116 108.848 40.9011 109.124 40.6654C109.406 40.4297 109.851 40.3118 110.461 40.3118H111.901V40.0358C111.901 39.6448 111.792 39.3487 111.573 39.1475C111.355 38.9405 111.036 38.837 110.616 38.837C110.329 38.837 110.053 38.8859 109.788 38.9836C109.524 39.0756 109.297 39.205 109.107 39.3717L108.831 38.9146C109.061 38.7192 109.337 38.5697 109.659 38.4662C109.981 38.3569 110.32 38.3023 110.677 38.3023ZM110.461 42.4334C110.806 42.4334 111.102 42.3558 111.349 42.2005C111.596 42.0395 111.78 41.8096 111.901 41.5106V40.7689H110.478C109.702 40.7689 109.314 41.0391 109.314 41.5796C109.314 41.8441 109.415 42.0539 109.616 42.2092C109.817 42.3586 110.099 42.4334 110.461 42.4334Z" fill="white"/>
<path d="M116.481 38.3023C116.906 38.3023 117.292 38.4001 117.637 38.5955C117.981 38.7853 118.252 39.0555 118.447 39.4062C118.643 39.757 118.74 40.1566 118.74 40.605C118.74 41.0592 118.643 41.4617 118.447 41.8124C118.252 42.1632 117.981 42.4363 117.637 42.6317C117.297 42.8215 116.912 42.9164 116.481 42.9164C116.113 42.9164 115.779 42.8416 115.48 42.6921C115.187 42.5369 114.946 42.3126 114.756 42.0194V44.5464H114.144V38.3368H114.73V39.2337C114.914 38.9348 115.156 38.7048 115.455 38.5438C115.759 38.3828 116.101 38.3023 116.481 38.3023ZM116.438 42.373C116.754 42.373 117.041 42.3011 117.3 42.1574C117.559 42.0079 117.76 41.7981 117.904 41.5278C118.053 41.2576 118.128 40.95 118.128 40.605C118.128 40.26 118.053 39.9553 117.904 39.6908C117.76 39.4206 117.559 39.2107 117.3 39.0613C117.041 38.9118 116.754 38.837 116.438 38.837C116.116 38.837 115.825 38.9118 115.567 39.0613C115.314 39.2107 115.112 39.4206 114.963 39.6908C114.819 39.9553 114.747 40.26 114.747 40.605C114.747 40.95 114.819 41.2576 114.963 41.5278C115.112 41.7981 115.314 42.0079 115.567 42.1574C115.825 42.3011 116.116 42.373 116.438 42.373Z" fill="white"/>
<path d="M121.928 42.9164C121.491 42.9164 121.097 42.8186 120.746 42.6231C120.395 42.4219 120.119 42.1459 119.918 41.7952C119.717 41.4445 119.616 41.0477 119.616 40.605C119.616 40.1623 119.717 39.7656 119.918 39.4149C120.119 39.0641 120.395 38.791 120.746 38.5955C121.097 38.4001 121.491 38.3023 121.928 38.3023C122.365 38.3023 122.758 38.4001 123.109 38.5955C123.46 38.791 123.733 39.0641 123.928 39.4149C124.13 39.7656 124.23 40.1623 124.23 40.605C124.23 41.0477 124.13 41.4445 123.928 41.7952C123.733 42.1459 123.46 42.4219 123.109 42.6231C122.758 42.8186 122.365 42.9164 121.928 42.9164ZM121.928 42.373C122.25 42.373 122.537 42.3011 122.79 42.1574C123.049 42.0079 123.25 41.7981 123.394 41.5278C123.537 41.2576 123.609 40.95 123.609 40.605C123.609 40.26 123.537 39.9524 123.394 39.6822C123.25 39.412 123.049 39.205 122.79 39.0613C122.537 38.9118 122.25 38.837 121.928 38.837C121.606 38.837 121.315 38.9118 121.056 39.0613C120.803 39.205 120.602 39.412 120.453 39.6822C120.309 39.9524 120.237 40.26 120.237 40.605C120.237 40.95 120.309 41.2576 120.453 41.5278C120.602 41.7981 120.803 42.0079 121.056 42.1574C121.315 42.3011 121.606 42.373 121.928 42.373Z" fill="white"/>
<path d="M129.938 42.3385V43.9685H129.36V42.8732H125.298V43.9685H124.72V42.3385H124.979C125.284 42.3213 125.491 42.097 125.6 41.6658C125.709 41.2346 125.784 40.6309 125.824 39.8547L125.885 38.3368H129.231V42.3385H129.938ZM126.385 39.8892C126.356 40.5331 126.301 41.065 126.221 41.4847C126.14 41.8987 125.997 42.1833 125.79 42.3385H128.618V38.8801H126.436L126.385 39.8892Z" fill="white"/>
<path d="M131.131 38.3368H131.744V40.3463H134.598V38.3368H135.211V42.8732H134.598V40.8724H131.744V42.8732H131.131V38.3368Z" fill="white"/>
<path d="M138.857 39.9409C139.426 39.9467 139.86 40.0732 140.159 40.3204C140.458 40.5676 140.608 40.9241 140.608 41.3898C140.608 41.8728 140.447 42.2437 140.125 42.5024C139.803 42.7611 139.343 42.8876 138.745 42.8819L136.951 42.8732V38.3368H137.563V39.9237L138.857 39.9409ZM141.367 38.3368H141.979V42.8732H141.367V38.3368ZM138.71 42.4161C139.13 42.4219 139.446 42.3385 139.659 42.166C139.878 41.9878 139.987 41.7291 139.987 41.3898C139.987 41.0564 139.881 40.8091 139.668 40.6481C139.455 40.4872 139.136 40.4038 138.71 40.398L137.563 40.3808V42.3989L138.71 42.4161Z" fill="white"/>
<path d="M143.723 38.3368H144.335V41.9418L147.362 38.3368H147.905V42.8732H147.293V39.2682L144.275 42.8732H143.723V38.3368ZM145.784 37.6814C145.393 37.6814 145.082 37.5836 144.852 37.3881C144.622 37.1926 144.505 36.9167 144.499 36.5602H144.939C144.944 36.7844 145.025 36.9655 145.18 37.1035C145.335 37.2358 145.537 37.3019 145.784 37.3019C146.031 37.3019 146.232 37.2358 146.388 37.1035C146.549 36.9655 146.632 36.7844 146.638 36.5602H147.077C147.072 36.9167 146.951 37.1926 146.715 37.3881C146.485 37.5836 146.175 37.6814 145.784 37.6814Z" fill="white"/>
<path d="M75.5967 53.6968C75.1598 53.6968 74.7659 53.5991 74.4152 53.4036C74.0645 53.2024 73.7885 52.9264 73.5873 52.5757C73.386 52.2249 73.2854 51.8282 73.2854 51.3855C73.2854 50.9428 73.386 50.5461 73.5873 50.1953C73.7885 49.8446 74.0645 49.5715 74.4152 49.376C74.7659 49.1805 75.1598 49.0828 75.5967 49.0828C76.0337 49.0828 76.4276 49.1805 76.7783 49.376C77.129 49.5715 77.4021 49.8446 77.5976 50.1953C77.7988 50.5461 77.8994 50.9428 77.8994 51.3855C77.8994 51.8282 77.7988 52.2249 77.5976 52.5757C77.4021 52.9264 77.129 53.2024 76.7783 53.4036C76.4276 53.5991 76.0337 53.6968 75.5967 53.6968ZM75.5967 53.1535C75.9187 53.1535 76.2062 53.0816 76.4592 52.9379C76.7179 52.7884 76.9191 52.5785 77.0629 52.3083C77.2066 52.0381 77.2785 51.7305 77.2785 51.3855C77.2785 51.0405 77.2066 50.7329 77.0629 50.4627C76.9191 50.1925 76.7179 49.9855 76.4592 49.8417C76.2062 49.6922 75.9187 49.6175 75.5967 49.6175C75.2748 49.6175 74.9844 49.6922 74.7257 49.8417C74.4727 49.9855 74.2715 50.1925 74.122 50.4627C73.9782 50.7329 73.9064 51.0405 73.9064 51.3855C73.9064 51.7305 73.9782 52.0381 74.122 52.3083C74.2715 52.5785 74.4727 52.7884 74.7257 52.9379C74.9844 53.0816 75.2748 53.1535 75.5967 53.1535Z" fill="white"/>
<path d="M81.4073 49.2294C81.8271 49.2294 82.2008 49.3243 82.5285 49.514C82.862 49.698 83.1207 49.9596 83.3047 50.2988C83.4887 50.6323 83.5807 51.0147 83.5807 51.4459C83.5807 51.8886 83.483 52.2824 83.2875 52.6274C83.0977 52.9666 82.8304 53.2311 82.4854 53.4209C82.1404 53.6106 81.7437 53.7055 81.2952 53.7055C80.542 53.7055 79.9585 53.441 79.5445 52.912C79.1305 52.3831 78.9235 51.6529 78.9235 50.7214C78.9235 49.7497 79.1075 49.0052 79.4755 48.4877C79.8492 47.9702 80.4299 47.6195 81.2176 47.4355L83.253 46.9698L83.3565 47.5304L81.4418 47.9702C80.7921 48.114 80.3149 48.3698 80.0102 48.7378C79.7055 49.1 79.5387 49.6376 79.51 50.3506C79.694 49.9998 79.9498 49.7267 80.2776 49.5313C80.6053 49.33 80.9819 49.2294 81.4073 49.2294ZM81.3125 53.1966C81.6287 53.1966 81.9104 53.1248 82.1577 52.981C82.4107 52.8315 82.6061 52.6245 82.7441 52.3601C82.8879 52.0956 82.9597 51.7966 82.9597 51.4631C82.9597 51.1296 82.8907 50.8364 82.7528 50.5834C82.6148 50.3305 82.4193 50.135 82.1663 49.997C81.9191 49.8532 81.6345 49.7814 81.3125 49.7814C80.9905 49.7814 80.703 49.8532 80.45 49.997C80.2028 50.135 80.0073 50.3305 79.8636 50.5834C79.7256 50.8364 79.6566 51.1296 79.6566 51.4631C79.6566 51.7966 79.7256 52.0956 79.8636 52.3601C80.0073 52.6245 80.2057 52.8315 80.4587 52.981C80.7116 53.1248 80.9963 53.1966 81.3125 53.1966Z" fill="white"/>
<path d="M87.2304 49.0828C87.6558 49.0828 88.0411 49.1805 88.386 49.376C88.731 49.5658 89.0012 49.836 89.1967 50.1867C89.3922 50.5374 89.4899 50.937 89.4899 51.3855C89.4899 51.8397 89.3922 52.2422 89.1967 52.5929C89.0012 52.9436 88.731 53.2167 88.386 53.4122C88.0468 53.602 87.6616 53.6968 87.2304 53.6968C86.8624 53.6968 86.5289 53.6221 86.2299 53.4726C85.9367 53.3174 85.6952 53.0931 85.5055 52.7999V55.3268H84.8932V49.1173H85.4796V50.0142C85.6636 49.7152 85.9051 49.4853 86.2041 49.3243C86.5088 49.1633 86.8509 49.0828 87.2304 49.0828ZM87.1872 53.1535C87.5035 53.1535 87.7909 53.0816 88.0497 52.9379C88.3084 52.7884 88.5096 52.5785 88.6534 52.3083C88.8029 52.0381 88.8776 51.7305 88.8776 51.3855C88.8776 51.0405 88.8029 50.7358 88.6534 50.4713C88.5096 50.2011 88.3084 49.9912 88.0497 49.8417C87.7909 49.6922 87.5035 49.6175 87.1872 49.6175C86.8653 49.6175 86.5749 49.6922 86.3162 49.8417C86.0632 49.9912 85.862 50.2011 85.7125 50.4713C85.5687 50.7358 85.4969 51.0405 85.4969 51.3855C85.4969 51.7305 85.5687 52.0381 85.7125 52.3083C85.862 52.5785 86.0632 52.7884 86.3162 52.9379C86.5749 53.0816 86.8653 53.1535 87.1872 53.1535Z" fill="white"/>
<path d="M92.3413 49.0828C92.9335 49.0828 93.3877 49.2323 93.704 49.5313C94.0202 49.8245 94.1783 50.2615 94.1783 50.8422V53.6537H93.5919V52.9465C93.4539 53.1822 93.2498 53.3662 92.9795 53.4985C92.715 53.6307 92.3988 53.6968 92.0308 53.6968C91.5249 53.6968 91.1224 53.5761 90.8234 53.3346C90.5244 53.0931 90.375 52.774 90.375 52.3773C90.375 51.9921 90.5129 51.6816 90.7889 51.4459C91.0707 51.2101 91.5163 51.0923 92.1257 51.0923H93.566V50.8163C93.566 50.4253 93.4567 50.1292 93.2383 49.928C93.0198 49.721 92.7007 49.6175 92.2809 49.6175C91.9935 49.6175 91.7175 49.6664 91.453 49.7641C91.1885 49.8561 90.9614 49.9855 90.7717 50.1522L90.4957 49.6951C90.7257 49.4996 91.0017 49.3501 91.3236 49.2467C91.6456 49.1374 91.9848 49.0828 92.3413 49.0828ZM92.1257 53.2139C92.4707 53.2139 92.7668 53.1363 93.014 52.981C93.2613 52.82 93.4452 52.59 93.566 52.2911V51.5494H92.143C91.3668 51.5494 90.9787 51.8196 90.9787 52.3601C90.9787 52.6245 91.0793 52.8344 91.2805 52.9896C91.4818 53.1391 91.7635 53.2139 92.1257 53.2139Z" fill="white"/>
<path d="M97.9236 51.2906C98.2456 51.3654 98.4928 51.4947 98.6653 51.6787C98.8435 51.8627 98.9326 52.087 98.9326 52.3514C98.9326 52.6159 98.8406 52.8516 98.6567 53.0586C98.4784 53.2656 98.2341 53.4266 97.9236 53.5416C97.6131 53.6508 97.271 53.7055 96.8973 53.7055C96.5696 53.7055 96.2476 53.6595 95.9314 53.5675C95.6151 53.4697 95.3391 53.3289 95.1034 53.1449L95.3104 52.6878C95.5174 52.843 95.7589 52.9638 96.0348 53.05C96.3108 53.1363 96.5897 53.1794 96.8714 53.1794C97.2911 53.1794 97.6332 53.1018 97.8977 52.9465C98.1679 52.7855 98.3031 52.5699 98.3031 52.2997C98.3031 52.0582 98.1938 51.8713 97.9753 51.7391C97.7568 51.6011 97.4579 51.5321 97.0784 51.5321H96.3022V51.0836H97.0439C97.3831 51.0836 97.6562 51.0204 97.8632 50.8939C98.0702 50.7617 98.1737 50.5863 98.1737 50.3678C98.1737 50.1263 98.0558 49.9366 97.8201 49.7986C97.5901 49.6606 97.2883 49.5916 96.9145 49.5916C96.4258 49.5916 95.9429 49.7152 95.4656 49.9625L95.2931 49.4881C95.8336 49.2064 96.3942 49.0655 96.9749 49.0655C97.3199 49.0655 97.6304 49.1173 97.9063 49.2208C98.1881 49.3185 98.4066 49.4594 98.5618 49.6434C98.7228 49.8274 98.8033 50.0401 98.8033 50.2816C98.8033 50.5116 98.7228 50.7157 98.5618 50.8939C98.4066 51.0721 98.1938 51.2044 97.9236 51.2906Z" fill="white"/>
<path d="M102.194 53.6968C101.757 53.6968 101.363 53.5991 101.013 53.4036C100.662 53.2024 100.386 52.9264 100.185 52.5757C99.9835 52.2249 99.8829 51.8282 99.8829 51.3855C99.8829 50.9428 99.9835 50.5461 100.185 50.1953C100.386 49.8446 100.662 49.5715 101.013 49.376C101.363 49.1805 101.757 49.0828 102.194 49.0828C102.631 49.0828 103.025 49.1805 103.376 49.376C103.726 49.5715 104 49.8446 104.195 50.1953C104.396 50.5461 104.497 50.9428 104.497 51.3855C104.497 51.8282 104.396 52.2249 104.195 52.5757C104 52.9264 103.726 53.2024 103.376 53.4036C103.025 53.5991 102.631 53.6968 102.194 53.6968ZM102.194 53.1535C102.516 53.1535 102.804 53.0816 103.057 52.9379C103.315 52.7884 103.517 52.5785 103.66 52.3083C103.804 52.0381 103.876 51.7305 103.876 51.3855C103.876 51.0405 103.804 50.7329 103.66 50.4627C103.517 50.1925 103.315 49.9855 103.057 49.8417C102.804 49.6922 102.516 49.6175 102.194 49.6175C101.872 49.6175 101.582 49.6922 101.323 49.8417C101.07 49.9855 100.869 50.1925 100.719 50.4627C100.576 50.7329 100.504 51.0405 100.504 51.3855C100.504 51.7305 100.576 52.0381 100.719 52.3083C100.869 52.5785 101.07 52.7884 101.323 52.9379C101.582 53.0816 101.872 53.1535 102.194 53.1535Z" fill="white"/>
<path d="M108.695 51.3079C109.31 51.4516 109.618 51.8225 109.618 52.4204C109.618 52.8172 109.471 53.1219 109.178 53.3346C108.885 53.5473 108.448 53.6537 107.867 53.6537H105.806V49.1173H107.806C108.324 49.1173 108.729 49.2179 109.022 49.4191C109.316 49.6204 109.462 49.9079 109.462 50.2816C109.462 50.5288 109.393 50.7415 109.255 50.9198C109.123 51.0923 108.936 51.2216 108.695 51.3079ZM106.401 51.1354H107.763C108.114 51.1354 108.381 51.0693 108.565 50.937C108.755 50.8048 108.85 50.6122 108.85 50.3592C108.85 50.1062 108.755 49.9165 108.565 49.79C108.381 49.6635 108.114 49.6003 107.763 49.6003H106.401V51.1354ZM107.841 53.1707C108.232 53.1707 108.525 53.1075 108.721 52.981C108.916 52.8545 109.014 52.6562 109.014 52.3859C109.014 52.1157 108.925 51.9173 108.747 51.7908C108.568 51.6586 108.287 51.5925 107.901 51.5925H106.401V53.1707H107.841Z" fill="white"/>
<path d="M112.614 49.0828C113.206 49.0828 113.66 49.2323 113.976 49.5313C114.293 49.8245 114.451 50.2615 114.451 50.8422V53.6537H113.864V52.9465C113.726 53.1822 113.522 53.3662 113.252 53.4985C112.987 53.6307 112.671 53.6968 112.303 53.6968C111.797 53.6968 111.395 53.5761 111.096 53.3346C110.797 53.0931 110.647 52.774 110.647 52.3773C110.647 51.9921 110.785 51.6816 111.061 51.4459C111.343 51.2101 111.789 51.0923 112.398 51.0923H113.838V50.8163C113.838 50.4253 113.729 50.1292 113.511 49.928C113.292 49.721 112.973 49.6175 112.553 49.6175C112.266 49.6175 111.99 49.6664 111.725 49.7641C111.461 49.8561 111.234 49.9855 111.044 50.1522L110.768 49.6951C110.998 49.4996 111.274 49.3501 111.596 49.2467C111.918 49.1374 112.257 49.0828 112.614 49.0828ZM112.398 53.2139C112.743 53.2139 113.039 53.1363 113.286 52.981C113.534 52.82 113.718 52.59 113.838 52.2911V51.5494H112.415C111.639 51.5494 111.251 51.8196 111.251 52.3601C111.251 52.6245 111.352 52.8344 111.553 52.9896C111.754 53.1391 112.036 53.2139 112.398 53.2139Z" fill="white"/>
<path d="M119.272 49.6606H117.556V53.6537H116.943V49.6606H115.227V49.1173H119.272V49.6606Z" fill="white"/>
<path d="M123.914 51.5752H120.119C120.154 52.0467 120.335 52.4291 120.662 52.7223C120.99 53.0098 121.404 53.1535 121.904 53.1535C122.186 53.1535 122.445 53.1046 122.68 53.0069C122.916 52.9034 123.12 52.7539 123.293 52.5584L123.638 52.9551C123.437 53.1966 123.184 53.3806 122.879 53.5071C122.58 53.6336 122.249 53.6968 121.887 53.6968C121.421 53.6968 121.007 53.5991 120.645 53.4036C120.289 53.2024 120.01 52.9264 119.809 52.5757C119.607 52.2249 119.507 51.8282 119.507 51.3855C119.507 50.9428 119.602 50.5461 119.791 50.1953C119.987 49.8446 120.251 49.5715 120.585 49.376C120.924 49.1805 121.303 49.0828 121.723 49.0828C122.143 49.0828 122.52 49.1805 122.853 49.376C123.186 49.5715 123.448 49.8446 123.638 50.1953C123.828 50.5403 123.922 50.937 123.922 51.3855L123.914 51.5752ZM121.723 49.6089C121.286 49.6089 120.918 49.7497 120.619 50.0315C120.326 50.3075 120.159 50.6697 120.119 51.1181H123.336C123.296 50.6697 123.126 50.3075 122.827 50.0315C122.534 49.7497 122.166 49.6089 121.723 49.6089Z" fill="white"/>
<path d="M128.894 49.1173V53.6537H128.281V49.6606H126.108L126.048 50.7818C126.002 51.7247 125.892 52.4492 125.72 52.9551C125.547 53.4611 125.24 53.7141 124.797 53.7141C124.676 53.7141 124.53 53.6911 124.357 53.6451L124.4 53.119C124.504 53.142 124.576 53.1535 124.616 53.1535C124.852 53.1535 125.03 53.0443 125.151 52.8258C125.271 52.6073 125.352 52.3371 125.392 52.0151C125.432 51.6931 125.467 51.2676 125.496 50.7387L125.573 49.1173H128.894Z" fill="white"/>
<path d="M132.584 50.7214C133.153 50.7272 133.584 50.8537 133.877 51.1009C134.176 51.3481 134.326 51.7046 134.326 52.1703C134.326 52.6533 134.165 53.0241 133.843 53.2829C133.526 53.5416 133.066 53.6681 132.463 53.6623L130.634 53.6537V49.1173H131.247V50.7042L132.584 50.7214ZM132.428 53.1966C132.848 53.2024 133.164 53.119 133.377 52.9465C133.595 52.7683 133.705 52.5095 133.705 52.1703C133.705 51.8368 133.598 51.5896 133.386 51.4286C133.173 51.2676 132.854 51.1843 132.428 51.1785L131.247 51.1613V53.1794L132.428 53.1966Z" fill="white"/>
<path d="M135.494 49.1173H136.106V51.1268H138.961V49.1173H139.573V53.6537H138.961V51.6529H136.106V53.6537H135.494V49.1173Z" fill="white"/>
<path d="M143.22 50.7214C143.789 50.7272 144.223 50.8537 144.522 51.1009C144.821 51.3481 144.971 51.7046 144.971 52.1703C144.971 52.6533 144.81 53.0241 144.488 53.2829C144.166 53.5416 143.706 53.6681 143.108 53.6623L141.314 53.6537V49.1173H141.926V50.7042L143.22 50.7214ZM145.729 49.1173H146.342V53.6537H145.729V49.1173ZM143.073 53.1966C143.493 53.2024 143.809 53.119 144.022 52.9465C144.24 52.7683 144.35 52.5095 144.35 52.1703C144.35 51.8368 144.243 51.5896 144.03 51.4286C143.818 51.2676 143.499 51.1843 143.073 51.1785L141.926 51.1613V53.1794L143.073 53.1966Z" fill="white"/>
<path d="M148.085 49.1173H148.698V52.7223L151.725 49.1173H152.268V53.6537H151.656V50.0487L148.637 53.6537H148.085V49.1173ZM150.147 48.4618C149.756 48.4618 149.445 48.3641 149.215 48.1686C148.985 47.9731 148.867 47.6971 148.861 47.3407H149.301C149.307 47.5649 149.388 47.746 149.543 47.884C149.698 48.0162 149.899 48.0824 150.147 48.0824C150.394 48.0824 150.595 48.0162 150.75 47.884C150.911 47.746 150.995 47.5649 151 47.3407H151.44C151.434 47.6971 151.314 47.9731 151.078 48.1686C150.848 48.3641 150.538 48.4618 150.147 48.4618Z" fill="white"/>
<path d="M161.006 53.119V54.7921H160.428V53.6537H156.28V49.1173H156.892V53.119H159.661V49.1173H160.273V53.119H161.006Z" fill="white"/>
<path d="M166.143 51.5752H162.348C162.383 52.0467 162.564 52.4291 162.892 52.7223C163.219 53.0098 163.633 53.1535 164.133 53.1535C164.415 53.1535 164.674 53.1046 164.91 53.0069C165.145 52.9034 165.35 52.7539 165.522 52.5584L165.867 52.9551C165.666 53.1966 165.413 53.3806 165.108 53.5071C164.809 53.6336 164.478 53.6968 164.116 53.6968C163.651 53.6968 163.237 53.5991 162.874 53.4036C162.518 53.2024 162.239 52.9264 162.038 52.5757C161.837 52.2249 161.736 51.8282 161.736 51.3855C161.736 50.9428 161.831 50.5461 162.02 50.1953C162.216 49.8446 162.48 49.5715 162.814 49.376C163.153 49.1805 163.533 49.0828 163.952 49.0828C164.372 49.0828 164.749 49.1805 165.082 49.376C165.416 49.5715 165.677 49.8446 165.867 50.1953C166.057 50.5403 166.152 50.937 166.152 51.3855L166.143 51.5752ZM163.952 49.6089C163.515 49.6089 163.147 49.7497 162.848 50.0315C162.555 50.3075 162.388 50.6697 162.348 51.1181H165.565C165.525 50.6697 165.355 50.3075 165.056 50.0315C164.763 49.7497 164.395 49.6089 163.952 49.6089Z" fill="white"/>
<path d="M167.507 49.1173H168.119V51.1268H170.974V49.1173H171.586V53.6537H170.974V51.6529H168.119V53.6537H167.507V49.1173Z" fill="white"/>
<path d="M176.518 49.6606H174.802V53.6537H174.189V49.6606H172.473V49.1173H176.518V49.6606Z" fill="white"/>
<path d="M179.74 49.0828C180.166 49.0828 180.551 49.1805 180.896 49.376C181.241 49.5658 181.511 49.836 181.707 50.1867C181.902 50.5374 182 50.937 182 51.3855C182 51.8397 181.902 52.2422 181.707 52.5929C181.511 52.9436 181.241 53.2167 180.896 53.4122C180.557 53.602 180.172 53.6968 179.74 53.6968C179.372 53.6968 179.039 53.6221 178.74 53.4726C178.447 53.3174 178.205 53.0931 178.015 52.7999V55.3268H177.403V49.1173H177.99V50.0142C178.174 49.7152 178.415 49.4853 178.714 49.3243C179.019 49.1633 179.361 49.0828 179.74 49.0828ZM179.697 53.1535C180.013 53.1535 180.301 53.0816 180.56 52.9379C180.818 52.7884 181.02 52.5785 181.163 52.3083C181.313 52.0381 181.388 51.7305 181.388 51.3855C181.388 51.0405 181.313 50.7358 181.163 50.4713C181.02 50.2011 180.818 49.9912 180.56 49.8417C180.301 49.6922 180.013 49.6175 179.697 49.6175C179.375 49.6175 179.085 49.6922 178.826 49.8417C178.573 49.9912 178.372 50.2011 178.222 50.4713C178.079 50.7358 178.007 51.0405 178.007 51.3855C178.007 51.7305 178.079 52.0381 178.222 52.3083C178.372 52.5785 178.573 52.7884 178.826 52.9379C179.085 53.0816 179.375 53.1535 179.697 53.1535Z" fill="white"/>
</svg>
